<mxfile host="65bd71144e" scale="2" border="0">
    <diagram id="teiMVdK-y_6o5-hTtrNA" name="Page-1">
        <mxGraphModel dx="1800" dy="1185" grid="1" gridSize="10" guides="1" tooltips="1" connect="1" arrows="1" fold="1" page="1" pageScale="1" pageWidth="1400" pageHeight="850" background="none" math="0" shadow="0">
            <root>
                <mxCell id="0"/>
                <mxCell id="1" parent="0"/>
                <mxCell id="2" value="" style="shape=ext;double=1;whiteSpace=wrap;html=1;fillColor=none;strokeColor=#996633;sketch=1;curveFitting=1;jiggle=2;glass=0;rounded=1;shadow=0;strokeWidth=2;dashed=1;dashPattern=1 1;labelBackgroundColor=none;" vertex="1" parent="1">
                    <mxGeometry x="160" y="60" width="1280" height="673" as="geometry"/>
                </mxCell>
            </root>
        </mxGraphModel>
    </diagram>
</mxfile>